<svg width="28" height="28" viewBox="0 0 28 28" fill="none" xmlns="http://www.w3.org/2000/svg">
<g clip-path="url(#clip0_11_170)">
<path d="M13.0667 6.53334C13.0667 10.1416 10.1416 13.0667 6.53333 13.0667C2.92507 13.0667 0 10.1416 0 6.53334C0 2.92508 2.92507 0 6.53333 0C10.1416 0 13.0667 2.92508 13.0667 6.53334Z" fill="white"/>
<path d="M13.0667 21.4667C13.0667 25.0749 10.1416 28 6.53333 28C2.92507 28 0 25.0749 0 21.4667C0 17.8584 2.92507 14.9333 6.53333 14.9333C10.1416 14.9333 13.0667 17.8584 13.0667 21.4667Z" fill="white"/>
<path d="M28 6.53334C28 10.1416 25.0749 13.0667 21.4667 13.0667C17.8584 13.0667 14.9333 10.1416 14.9333 6.53334C14.9333 2.92508 17.8584 0 21.4667 0C25.0749 0 28 2.92508 28 6.53334Z" fill="white"/>
<path d="M28 21.4667C28 25.0749 25.0749 28 21.4667 28C17.8584 28 14.9333 25.0749 14.9333 21.4667C14.9333 17.8584 17.8584 14.9333 21.4667 14.9333C25.0749 14.9333 28 17.8584 28 21.4667Z" fill="white"/>
</g>
<defs>
<clipPath id="clip0_11_170">
<rect width="28" height="28" fill="white"/>
</clipPath>
</defs>
</svg>
