<svg width="171" height="162" viewBox="0 0 171 162" fill="none" xmlns="http://www.w3.org/2000/svg">
<path d="M119.846 80.1495C118.115 57.9406 98.7188 41.3352 76.5231 43.0603C54.3274 44.7854 37.7372 64.1877 39.4679 86.3966C41.1986 108.605 60.5947 125.211 82.7905 123.486C104.986 121.761 121.576 102.358 119.846 80.1495Z" fill="#665677"/>
<path d="M64.8437 22.5618C31.8872 30.6141 11.6968 63.8849 19.7619 96.8941C27.8271 129.903 61.0848 150.115 94.0414 142.063C126.998 134.011 147.22 100.732 139.155 67.7229C131.09 34.7137 97.8318 14.5019 64.8437 22.5618ZM66.8523 30.7827C76.1381 28.5139 85.4689 34.2113 87.7315 43.4716C89.994 52.7318 84.3103 62.0977 75.056 64.3588C65.8017 66.6199 56.4394 60.9302 54.1768 51.6699C51.9143 42.4097 57.5981 33.0438 66.8523 30.7827ZM88.8144 81.6247C89.9476 81.3478 91.0836 82.0383 91.3684 83.2037C91.6531 84.3691 90.9634 85.5054 89.8303 85.7823C88.6971 86.0592 87.5611 85.3689 87.2763 84.2035C86.9916 83.0381 87.6813 81.9016 88.8144 81.6247ZM83.8324 75.4321C82.6992 75.709 81.5317 75.0263 81.247 73.8609C80.9622 72.6955 81.6519 71.559 82.8165 71.2745C83.9812 70.9899 85.0857 71.688 85.3705 72.8534C85.6552 74.0188 84.9655 75.1553 83.8324 75.4321ZM69.7893 76.6603C69.5122 75.5264 70.1942 74.3585 71.3588 74.0739C72.5235 73.7893 73.6595 74.4797 73.9443 75.6451C74.229 76.8106 73.5393 77.947 72.3747 78.2316C71.21 78.5161 70.074 77.8257 69.7893 76.6603ZM73.3557 87.5713C73.6328 88.7052 72.9508 89.8731 71.7862 90.1577C70.6215 90.4423 69.517 89.7442 69.2322 88.5788C68.9475 87.4134 69.6371 86.2769 70.7703 86C71.9035 85.7231 73.071 86.4059 73.3557 87.5713ZM26.5934 84.444C24.3232 75.1522 30.0146 65.8178 39.2689 63.5567C48.5232 61.2956 57.8855 66.9853 60.1481 76.2456C62.4106 85.5058 56.7269 94.8718 47.4726 97.1329C38.2183 99.394 28.856 93.7042 26.5934 84.444ZM68.8535 132.763C59.5677 135.032 50.2369 129.335 47.9743 120.074C45.7118 110.814 51.3955 101.448 60.6498 99.187C69.9041 96.9259 79.2664 102.616 81.529 111.876C83.7915 121.136 78.1077 130.502 68.8535 132.763ZM82.2669 93.872C81.1337 94.1488 79.9977 93.4584 79.7207 92.3245C79.4436 91.1906 80.1256 90.0227 81.2588 89.7458C82.392 89.4689 83.5594 90.1516 83.8442 91.317C84.1289 92.4824 83.4316 93.5874 82.2669 93.872ZM80.7893 87.8244C77.7046 88.5781 74.6099 86.6974 73.8557 83.6107C73.1016 80.5239 74.9803 77.428 78.065 76.6743C81.1498 75.9206 84.2444 77.8014 84.9986 80.8881C85.7528 83.9749 83.8741 87.0707 80.7893 87.8244ZM112.095 122.165C102.841 124.426 93.4788 118.736 91.2162 109.476C88.9537 100.215 94.6374 90.8495 103.892 88.5884C113.146 86.3273 122.508 92.017 124.771 101.277C127.033 110.537 121.35 119.903 112.095 122.165ZM114.637 80.6892C105.351 82.958 96.0205 77.2606 93.758 68.0004C91.4954 58.7401 97.1791 49.3741 106.433 47.113C115.688 44.8519 125.05 50.5417 127.313 59.802C129.575 69.0622 123.891 78.4282 114.637 80.6892Z" fill="#E54E25"/>
<path d="M146.503 97.9358C144.145 107.123 139.62 115.906 132.9 123.489C125.84 131.456 117.22 137.133 107.882 140.55C122.908 139.115 137.405 132.235 148.204 120.05C155.216 112.162 159.83 102.924 162.089 93.3268L146.472 97.9435L146.503 97.9358Z" fill="#665677"/>
<path d="M86.3911 80.5806C87.33 84.4233 84.968 88.2714 81.1593 89.202C77.3505 90.1326 73.4724 87.7757 72.5412 83.9645C71.61 80.1533 73.9644 76.2738 77.7731 75.3432C81.5819 74.4126 85.46 76.7694 86.3911 80.5806Z" fill="#D1442D"/>
<g style="mix-blend-mode:screen" opacity="0.6">
<path d="M64.5676 133.242C61.7934 133.219 59.1171 132.505 56.7499 131.281L52.8966 137.763C55.2407 138.892 57.6799 139.865 60.1512 140.696L64.5438 133.281L64.5676 133.242Z" fill="white"/>
</g>
<g style="mix-blend-mode:screen" opacity="0.6">
<path d="M41.757 130.805L48.0521 120.255C48.0521 120.255 48.0213 120.129 48.0059 120.066C45.7511 110.837 51.3796 101.518 60.587 99.2018L73.4709 77.5293C73.1862 77.8659 72.847 78.1157 72.4063 78.2233C71.2731 78.5002 70.1056 77.8175 69.8209 76.6521C69.5361 75.4867 70.2258 74.3502 71.3904 74.0656C72.5551 73.7811 73.6911 74.4715 73.9758 75.6369C74.0836 76.0779 74.0109 76.4627 73.8752 76.863L104.17 25.97C98.0379 23.2627 91.4213 21.575 84.6103 21.0028L78.1564 31.8587C82.8138 33.9917 86.494 38.1326 87.8023 43.4871C90.0648 52.7474 84.381 62.1133 75.1268 64.3744C69.8701 65.6588 64.6189 64.3717 60.6183 61.3772L56.2419 68.7216C58.1173 70.8 59.5423 73.3557 60.2503 76.2535C62.5129 85.5137 56.8291 94.8797 47.5748 97.1408C44.7734 97.8253 41.96 97.7783 39.3305 97.1191L28.0959 115.985C31.8622 121.707 36.4889 126.718 41.7962 130.829L41.757 130.805Z" fill="white"/>
</g>
<g style="mix-blend-mode:screen" opacity="0.6">
<path d="M106.858 47.0757C109.864 46.4081 112.873 46.574 115.651 47.4307L121.566 37.5077C119.657 35.7042 117.654 34.0576 115.54 32.5046L106.882 47.0365L106.858 47.0757Z" fill="white"/>
</g>
<g style="mix-blend-mode:screen" opacity="0.6">
<path d="M93.9666 68.7169L84.936 83.9073C84.6563 84.8101 84.1883 85.6253 83.5245 86.3216L81.4947 89.7547C82.588 89.5878 83.6142 90.2382 83.8836 91.3406C84.1529 92.443 83.471 93.611 82.3063 93.8955C81.2361 94.157 80.1861 93.5457 79.8377 92.5294L74.4303 101.661C76.6624 103.152 78.554 105.159 79.8852 107.605L98.4934 76.3225C96.4291 74.2901 94.8391 71.7414 93.9821 68.7799L93.9666 68.7169ZM89.8228 85.7507C88.6896 86.0275 87.5536 85.3371 87.2689 84.1717C86.9841 83.0063 87.6738 81.8699 88.807 81.593C89.9401 81.3161 91.0762 82.0065 91.3609 83.1719C91.6457 84.3373 90.956 85.4738 89.8228 85.7507Z" fill="white"/>
</g>
<path d="M63.8356 18.4353C28.5812 27.049 6.98773 62.6319 15.607 97.9089C24.2262 133.186 59.7952 154.802 95.0496 146.189C130.304 137.575 151.898 101.992 143.278 66.7151C134.659 31.438 99.09 9.82161 63.8356 18.4353ZM94.0337 142.031C61.0772 150.083 27.8194 129.871 19.7542 96.8622C11.6891 63.853 31.8795 30.5822 64.8361 22.5299C97.7927 14.4777 131.082 34.6818 139.147 67.691C147.212 100.7 127.022 133.971 94.0337 142.031Z" fill="#8763AA"/>
</svg>
