<svg width="36" height="36" viewBox="0 0 36 36" fill="none" xmlns="http://www.w3.org/2000/svg">
<g clip-path="url(#clip0_11_315)">
<path fill-rule="evenodd" clip-rule="evenodd" d="M28.1741 4.81337L4.81309 28.1744C3.71203 29.2755 1.92686 29.2755 0.825804 28.1745C-0.275256 27.0734 -0.275257 25.2882 0.825803 24.1872L24.1869 0.826078C25.2879 -0.274981 27.0731 -0.274982 28.1741 0.826078C29.2752 1.92714 29.2752 3.71231 28.1741 4.81337Z" fill="white"/>
<path fill-rule="evenodd" clip-rule="evenodd" d="M0.825794 4.81333L24.1868 28.1744C25.2879 29.2755 27.0731 29.2755 28.1741 28.1744C29.2752 27.0733 29.2752 25.2882 28.1741 24.1871L4.81308 0.826039C3.71203 -0.27502 1.92685 -0.275021 0.825795 0.826038C-0.275264 1.9271 -0.275266 3.71227 0.825794 4.81333Z" fill="white"/>
</g>
<defs>
<clipPath id="clip0_11_315">
<rect width="36" height="36.0001" fill="white" transform="translate(0 0.000244141)"/>
</clipPath>
</defs>
</svg>
