<svg width="182" height="48" viewBox="0 0 182 48" fill="none" xmlns="http://www.w3.org/2000/svg">
<path d="M0 9C0 4.02944 4.00742 0 8.95082 0H173.049C177.993 0 182 4.02944 182 9V39C182 43.9706 177.993 48 173.049 48H8.95082C4.00742 48 0 43.9706 0 39V9Z" fill="url(#paint0_linear_231_4291)"/>
<path d="M34.496 33.3413C36.4279 33.3413 38.0204 32.5275 38.9602 31.005C39.874 32.5275 41.4665 33.3413 43.4245 33.3413C46.4789 33.3413 48.8285 31.5037 48.8285 27.435V20.0325H45.7218V27.435C45.7218 29.5612 44.6254 30.4275 43.1112 30.4275C41.6231 30.4275 40.5266 29.535 40.5266 27.435V20.0325H37.4199V27.435C37.4199 29.535 36.2974 30.4275 34.8093 30.4275C33.2951 30.4275 32.1986 29.5612 32.1986 27.435V20.0325H29.092V27.435C29.092 31.5037 31.4415 33.3413 34.496 33.3413Z" fill="white"/>
<path d="M56.7523 33.3413C58.7886 33.3413 60.5377 32.37 61.3209 30.4538V33H64.1665V26.6213C64.1665 22.4475 61.347 19.6912 57.3005 19.6912C53.2018 19.6912 50.33 22.5262 50.33 26.6475C50.33 31.0837 53.6195 33.3413 56.7523 33.3413ZM57.2744 30.4275C55.0031 30.4275 53.4628 28.8 53.4628 26.5163C53.4628 24.2325 55.0031 22.605 57.2744 22.605C59.5457 22.605 61.0598 24.2325 61.0598 26.5163C61.0598 28.8 59.5457 30.4275 57.2744 30.4275Z" fill="white"/>
<path d="M71.4868 33.3413C74.6196 33.3413 76.7603 31.6087 76.7603 28.0125V27.6712H73.6536V28.0125C73.6536 29.7712 72.766 30.4275 71.4868 30.4275C70.2075 30.4275 69.3199 29.745 69.3199 28.0125V22.8675H75.9771V20.0325H69.3199V15.4387H66.2132V28.0125C66.2132 31.6087 68.354 33.3413 71.4868 33.3413Z" fill="white"/>
<path d="M84.6567 33.3413C88.155 33.3413 90.7134 31.215 91.34 28.1438H88.2072C87.659 29.535 86.3536 30.4275 84.6567 30.4275C82.3854 30.4275 80.8451 28.8 80.8451 26.5163C80.8451 24.2325 82.3854 22.605 84.6567 22.605C86.3536 22.605 87.659 23.4975 88.2072 24.8887H91.34C90.7134 21.8175 88.155 19.6912 84.6567 19.6912C80.5841 19.6912 77.7124 22.5788 77.7124 26.5163C77.7124 30.4538 80.5841 33.3413 84.6567 33.3413Z" fill="white"/>
<path d="M93.2739 33H96.3806V26.2537C96.3806 23.8387 97.7381 22.605 99.6439 22.605C101.602 22.605 102.907 23.7862 102.907 26.2537V33H106.014V26.2537C106.014 21.6337 103.194 19.6912 100.218 19.6912C98.5735 19.6912 97.2421 20.4525 96.3806 21.8438V14.3625H93.2739V33Z" fill="white"/>
<path d="M114.435 33.3413C117.359 33.3413 119.656 31.8975 120.727 29.325V33H121.379V26.5687C121.379 22.5525 118.534 19.6912 114.461 19.6912C110.388 19.6912 107.517 22.5788 107.517 26.5163C107.517 30.4538 110.388 33.3413 114.435 33.3413ZM114.461 32.7113C110.728 32.7113 108.222 30.06 108.222 26.5163C108.222 22.9725 110.728 20.3212 114.461 20.3212C118.194 20.3212 120.7 22.9725 120.7 26.5163C120.7 30.06 118.194 32.7113 114.461 32.7113Z" fill="white"/>
<path d="M123.425 38.5387H124.104V29.43C125.096 31.8712 127.446 33.3413 130.37 33.3413C134.416 33.3413 137.288 30.4538 137.288 26.5163C137.288 22.5788 134.416 19.6912 130.344 19.6912C126.271 19.6912 123.425 22.5262 123.425 26.5687V38.5387ZM130.344 32.7113C126.61 32.7113 124.104 30.06 124.104 26.5163C124.104 22.9725 126.61 20.3212 130.344 20.3212C134.077 20.3212 136.583 22.9725 136.583 26.5163C136.583 30.06 134.077 32.7113 130.344 32.7113Z" fill="white"/>
<path d="M138.812 38.5387H139.491V29.43C140.483 31.8712 142.832 33.3413 145.756 33.3413C149.803 33.3413 152.674 30.4538 152.674 26.5163C152.674 22.5788 149.803 19.6912 145.73 19.6912C141.658 19.6912 138.812 22.5262 138.812 26.5687V38.5387ZM145.73 32.7113C141.997 32.7113 139.491 30.06 139.491 26.5163C139.491 22.9725 141.997 20.3212 145.73 20.3212C149.463 20.3212 151.97 22.9725 151.97 26.5163C151.97 30.06 149.463 32.7113 145.73 32.7113Z" fill="white"/>
<path d="M151.418 28.875C151.418 30.3247 150.249 31.5 148.807 31.5C147.366 31.5 146.197 30.3247 146.197 28.875C146.197 27.4253 147.366 26.25 148.807 26.25C150.249 26.25 151.418 27.4253 151.418 28.875Z" fill="white"/>
<path d="M136.5 28.875C136.5 30.3247 135.331 31.5 133.889 31.5C132.448 31.5 131.279 30.3247 131.279 28.875C131.279 27.4253 132.448 26.25 133.889 26.25C135.331 26.25 136.5 27.4253 136.5 28.875Z" fill="white"/>
<defs>
<linearGradient id="paint0_linear_231_4291" x1="0" y1="0" x2="106.48" y2="116.83" gradientUnits="userSpaceOnUse">
<stop stop-color="#02025F"/>
<stop offset="0.681441" stop-color="#8615B5"/>
<stop offset="1" stop-color="#E74B02"/>
</linearGradient>
</defs>
</svg>
