<svg width="25" height="14" viewBox="0 0 25 14" fill="none" xmlns="http://www.w3.org/2000/svg">
<path fill-rule="evenodd" clip-rule="evenodd" d="M1.00365 0.981013C1.78951 0.132287 3.1146 0.081322 3.96333 0.867179L13.7551 9.93366C14.6039 10.7195 14.6548 12.0446 13.869 12.8933C13.0831 13.7421 11.758 13.793 10.9093 13.0072L1.11749 3.94069C0.268762 3.15483 0.217797 1.82974 1.00365 0.981013Z" fill="white"/>
<path fill-rule="evenodd" clip-rule="evenodd" d="M23.8884 0.981013C23.1026 0.132287 21.7775 0.081322 20.9288 0.867179L11.137 9.93366C10.2882 10.7195 10.2373 12.0446 11.0231 12.8933C11.809 13.7421 13.1341 13.793 13.9828 13.0072L23.7746 3.94069C24.6233 3.15483 24.6743 1.82974 23.8884 0.981013Z" fill="white"/>
</svg>
