<svg width="39" height="39" viewBox="0 0 39 39" fill="none" xmlns="http://www.w3.org/2000/svg">
<circle cx="19.5" cy="19.5" r="19.5" fill="#6D6D6D"/>
<path d="M8.63049 29.7294C7.82284 29.8226 7.16427 29.0944 7.34159 28.3042L8.02068 25.2779C8.22995 24.3453 9.4093 24.0371 10.0515 24.7472L12.4655 27.4166C13.1077 28.1266 12.6768 29.2625 11.7236 29.3725L8.63049 29.7294Z" fill="white"/>
<path d="M23.0419 10.764C23.5267 10.3292 24.2737 10.3681 24.7103 10.8509L27.8726 14.3477C28.3092 14.8305 28.2702 15.5744 27.7853 16.0092L15.4956 27.0315C15.0108 27.4663 14.2638 27.4274 13.8272 26.9446L10.6648 23.4478C10.2282 22.965 10.2673 22.2211 10.7521 21.7863L23.0419 10.764Z" fill="white"/>
<path d="M26.5532 7.61478C27.038 7.17996 27.785 7.21886 28.2216 7.70167L31.384 11.1985C31.8206 11.6813 31.7815 12.4252 31.2967 12.86L30.4189 13.6473C29.934 14.0821 29.1871 14.0432 28.7504 13.5604L25.5881 10.0636C25.1515 9.58078 25.1906 8.8369 25.6754 8.40208L26.5532 7.61478Z" fill="white"/>
</svg>
