<svg width="32" height="32" viewBox="0 0 32 32" fill="none" xmlns="http://www.w3.org/2000/svg">
<rect width="32" height="32" rx="8" fill="#F7F7F7"/>
<path fill-rule="evenodd" clip-rule="evenodd" d="M16 6C16.4602 6 16.8333 6.3731 16.8333 6.83333V25.1667C16.8333 25.6269 16.4602 26 16 26C15.5397 26 15.1666 25.6269 15.1666 25.1667V6.83333C15.1666 6.3731 15.5397 6 16 6Z" fill="black"/>
<path fill-rule="evenodd" clip-rule="evenodd" d="M26 16.0002C26 16.4604 25.6269 16.8335 25.1667 16.8335L6.83333 16.8335C6.3731 16.8335 6 16.4604 6 16.0002C6 15.5399 6.3731 15.1668 6.83333 15.1668L25.1667 15.1668C25.6269 15.1668 26 15.5399 26 16.0002Z" fill="black"/>
</svg>
