<svg width="37" height="37" viewBox="0 0 37 37" fill="none" xmlns="http://www.w3.org/2000/svg">
<path d="M18.5 0C14.8411 0 11.2643 1.08501 8.22196 3.11781C5.17965 5.15062 2.80846 8.03992 1.40824 11.4204C0.00801575 14.8008 -0.358346 18.5205 0.355481 22.1092C1.06931 25.6978 2.83126 28.9942 5.41853 31.5815C8.0058 34.1687 11.3022 35.9307 14.8908 36.6445C18.4795 37.3583 22.1992 36.992 25.5796 35.5918C28.9601 34.1915 31.8494 31.8203 33.8822 28.778C35.915 25.7357 37 22.1589 37 18.5C37 16.0705 36.5215 13.6649 35.5918 11.4204C34.6621 9.17583 33.2994 7.13641 31.5815 5.41852C29.8636 3.70064 27.8242 2.33794 25.5796 1.40823C23.3351 0.478517 20.9295 0 18.5 0ZM18.5 33.3C15.5728 33.3 12.7114 32.432 10.2776 30.8057C7.84372 29.1795 5.94677 26.8681 4.82659 24.1637C3.70641 21.4594 3.41332 18.4836 3.98439 15.6127C4.55545 12.7417 5.96501 10.1046 8.03483 8.03482C10.1046 5.965 12.7417 4.55544 15.6127 3.98438C18.4836 3.41332 21.4594 3.70641 24.1637 4.82658C26.8681 5.94676 29.1795 7.84371 30.8057 10.2776C32.432 12.7114 33.3 15.5728 33.3 18.5C33.3 22.4252 31.7407 26.1896 28.9652 28.9652C26.1896 31.7407 22.4252 33.3 18.5 33.3Z" fill="white"/>
<path d="M24.0496 16.6501H20.3496V12.9501C20.3496 12.4594 20.1547 11.9889 19.8078 11.642C19.4608 11.295 18.9903 11.1001 18.4996 11.1001C18.009 11.1001 17.5384 11.295 17.1915 11.642C16.8445 11.9889 16.6496 12.4594 16.6496 12.9501V16.6501H12.9496C12.459 16.6501 11.9884 16.845 11.6415 17.1919C11.2945 17.5389 11.0996 18.0094 11.0996 18.5001C11.0996 18.9907 11.2945 19.4613 11.6415 19.8082C11.9884 20.1552 12.459 20.3501 12.9496 20.3501H16.6496V24.0501C16.6496 24.5407 16.8445 25.0113 17.1915 25.3582C17.5384 25.7052 18.009 25.9001 18.4996 25.9001C18.9903 25.9001 19.4608 25.7052 19.8078 25.3582C20.1547 25.0113 20.3496 24.5407 20.3496 24.0501V20.3501H24.0496C24.5403 20.3501 25.0108 20.1552 25.3578 19.8082C25.7047 19.4613 25.8996 18.9907 25.8996 18.5001C25.8996 18.0094 25.7047 17.5389 25.3578 17.1919C25.0108 16.845 24.5403 16.6501 24.0496 16.6501Z" fill="white"/>
</svg>
