<svg width="169" height="33" viewBox="0 0 169 33" fill="none" xmlns="http://www.w3.org/2000/svg">
<path d="M9.2474 25.455C11.8374 25.455 13.9724 24.37 15.2324 22.34C16.4574 24.37 18.5924 25.455 21.2174 25.455C25.3124 25.455 28.4624 23.005 28.4624 17.58V7.71H24.2974V17.58C24.2974 20.415 22.8274 21.57 20.7974 21.57C18.8024 21.57 17.3324 20.38 17.3324 17.58V7.71H13.1674V17.58C13.1674 20.38 11.6624 21.57 9.6674 21.57C7.6374 21.57 6.1674 20.415 6.1674 17.58V7.71H2.0024V17.58C2.0024 23.005 5.1524 25.455 9.2474 25.455ZM39.0854 25.455C41.8154 25.455 44.1604 24.16 45.2104 21.605V25H49.0254V16.495C49.0254 10.93 45.2454 7.255 39.8204 7.255C34.3254 7.255 30.4754 11.035 30.4754 16.53C30.4754 22.445 34.8854 25.455 39.0854 25.455ZM39.7854 21.57C36.7404 21.57 34.6754 19.4 34.6754 16.355C34.6754 13.31 36.7404 11.14 39.7854 11.14C42.8304 11.14 44.8604 13.31 44.8604 16.355C44.8604 19.4 42.8304 21.57 39.7854 21.57ZM58.8394 25.455C63.0394 25.455 65.9094 23.145 65.9094 18.35V17.895H61.7444V18.35C61.7444 20.695 60.5544 21.57 58.8394 21.57C57.1244 21.57 55.9344 20.66 55.9344 18.35V11.49H64.8594V7.71H55.9344V1.585H51.7694V18.35C51.7694 23.145 54.6394 25.455 58.8394 25.455ZM76.4958 25.455C81.1858 25.455 84.6158 22.62 85.4558 18.525H81.2558C80.5208 20.38 78.7708 21.57 76.4958 21.57C73.4508 21.57 71.3858 19.4 71.3858 16.355C71.3858 13.31 73.4508 11.14 76.4958 11.14C78.7708 11.14 80.5208 12.33 81.2558 14.185H85.4558C84.6158 10.09 81.1858 7.255 76.4958 7.255C71.0358 7.255 67.1858 11.105 67.1858 16.355C67.1858 21.605 71.0358 25.455 76.4958 25.455ZM88.0485 25H92.2135V16.005C92.2135 12.785 94.0335 11.14 96.5885 11.14C99.2135 11.14 100.964 12.715 100.964 16.005V25H105.129V16.005C105.129 9.845 101.349 7.255 97.3585 7.255C95.1535 7.255 93.3685 8.27 92.2135 10.125V0.149999H88.0485V25ZM116.418 25.455C120.338 25.455 123.418 23.53 124.853 20.1V25H125.728V16.425C125.728 11.07 121.913 7.255 116.453 7.255C110.993 7.255 107.143 11.105 107.143 16.355C107.143 21.605 110.993 25.455 116.418 25.455ZM116.453 24.615C111.448 24.615 108.088 21.08 108.088 16.355C108.088 11.63 111.448 8.095 116.453 8.095C121.458 8.095 124.818 11.63 124.818 16.355C124.818 21.08 121.458 24.615 116.453 24.615ZM128.471 32.385H129.381V20.24C130.711 23.495 133.861 25.455 137.781 25.455C143.206 25.455 147.056 21.605 147.056 16.355C147.056 11.105 143.206 7.255 137.746 7.255C132.286 7.255 128.471 11.035 128.471 16.425V32.385ZM137.746 24.615C132.741 24.615 129.381 21.08 129.381 16.355C129.381 11.63 132.741 8.095 137.746 8.095C142.751 8.095 146.111 11.63 146.111 16.355C146.111 21.08 142.751 24.615 137.746 24.615ZM149.099 32.385H150.009V20.24C151.339 23.495 154.489 25.455 158.409 25.455C163.834 25.455 167.684 21.605 167.684 16.355C167.684 11.105 163.834 7.255 158.374 7.255C152.914 7.255 149.099 11.035 149.099 16.425V32.385ZM158.374 24.615C153.369 24.615 150.009 21.08 150.009 16.355C150.009 11.63 153.369 8.095 158.374 8.095C163.379 8.095 166.739 11.63 166.739 16.355C166.739 21.08 163.379 24.615 158.374 24.615Z" fill="white"/>
<circle cx="162.5" cy="19.5" r="3.5" fill="white"/>
<circle cx="142.5" cy="19.5" r="3.5" fill="white"/>
</svg>
